<?xml version="1.0" encoding="UTF-8" standalone="no"?>
<!DOCTYPE svg PUBLIC "-//W3C//DTD SVG 1.1//EN"
 "http://www.w3.org/Graphics/SVG/1.1/DTD/svg11.dtd">
<!-- Generated by graphviz version 2.38.0 (20140413.2041)
 -->
<!-- Title: snakemake_dag Pages: 1 -->
<svg width="125pt" height="404pt"
 viewBox="0.00 0.00 125.32 404.00" xmlns="http://www.w3.org/2000/svg" xmlns:xlink="http://www.w3.org/1999/xlink">
<g id="graph0" class="graph" transform="scale(1 1) rotate(0) translate(4 400)">
<title>snakemake_dag</title>
<polygon fill="white" stroke="none" points="-4,4 -4,-400 121.322,-400 121.322,4 -4,4"/>
<!-- 0 -->
<g id="node1" class="node"><title>0</title>
<path fill="none" stroke="#afd856" stroke-width="2" d="M53.2954,-36C53.2954,-36 23.2954,-36 23.2954,-36 17.2954,-36 11.2954,-30 11.2954,-24 11.2954,-24 11.2954,-12 11.2954,-12 11.2954,-6 17.2954,-0 23.2954,-0 23.2954,-0 53.2954,-0 53.2954,-0 59.2954,-0 65.2954,-6 65.2954,-12 65.2954,-12 65.2954,-24 65.2954,-24 65.2954,-30 59.2954,-36 53.2954,-36"/>
<text text-anchor="middle" x="38.2954" y="-15" font-family="sans" font-size="10.00">targets</text>
</g>
<!-- 1 -->
<g id="node2" class="node"><title>1</title>
<path fill="none" stroke="#d85656" stroke-width="2" d="M105.349,-108C105.349,-108 43.2417,-108 43.2417,-108 37.2417,-108 31.2417,-102 31.2417,-96 31.2417,-96 31.2417,-84 31.2417,-84 31.2417,-78 37.2417,-72 43.2417,-72 43.2417,-72 105.349,-72 105.349,-72 111.349,-72 117.349,-78 117.349,-84 117.349,-84 117.349,-96 117.349,-96 117.349,-102 111.349,-108 105.349,-108"/>
<text text-anchor="middle" x="74.2954" y="-87" font-family="sans" font-size="10.00">update_readme</text>
</g>
<!-- 1&#45;&gt;0 -->
<g id="edge1" class="edge"><title>1&#45;&gt;0</title>
<path fill="none" stroke="grey" stroke-width="2" d="M65.3965,-71.6966C61.2986,-63.7284 56.3466,-54.0995 51.8027,-45.2641"/>
<polygon fill="grey" stroke="grey" stroke-width="2" points="54.778,-43.3965 47.0919,-36.1043 48.5529,-46.598 54.778,-43.3965"/>
</g>
<!-- 2 -->
<g id="node3" class="node"><title>2</title>
<path fill="none" stroke="#56d8a9" stroke-width="2" d="M64.3873,-180C64.3873,-180 12.2035,-180 12.2035,-180 6.2035,-180 0.203503,-174 0.203503,-168 0.203503,-168 0.203503,-156 0.203503,-156 0.203503,-150 6.2035,-144 12.2035,-144 12.2035,-144 64.3873,-144 64.3873,-144 70.3873,-144 76.3873,-150 76.3873,-156 76.3873,-156 76.3873,-168 76.3873,-168 76.3873,-174 70.3873,-180 64.3873,-180"/>
<text text-anchor="middle" x="38.2954" y="-159" font-family="sans" font-size="10.00">render_report</text>
</g>
<!-- 2&#45;&gt;0 -->
<g id="edge2" class="edge"><title>2&#45;&gt;0</title>
<path fill="none" stroke="grey" stroke-width="2" d="M31.6432,-143.628C28.0925,-133.421 24.0925,-120.171 22.2954,-108 19.9583,-92.1716 19.9583,-87.8284 22.2954,-72 23.573,-63.3473 25.964,-54.1492 28.5155,-45.8867"/>
<polygon fill="grey" stroke="grey" stroke-width="2" points="31.8453,-46.9648 31.6432,-36.3719 25.1954,-44.7788 31.8453,-46.9648"/>
</g>
<!-- 2&#45;&gt;1 -->
<g id="edge3" class="edge"><title>2&#45;&gt;1</title>
<path fill="none" stroke="grey" stroke-width="2" d="M47.1943,-143.697C51.2922,-135.728 56.2442,-126.1 60.7881,-117.264"/>
<polygon fill="grey" stroke="grey" stroke-width="2" points="64.0379,-118.598 65.4989,-108.104 57.8129,-115.396 64.0379,-118.598"/>
</g>
<!-- 3 -->
<g id="node4" class="node"><title>3</title>
<path fill="none" stroke="#d8ac56" stroke-width="2" d="M53.2954,-252C53.2954,-252 23.2954,-252 23.2954,-252 17.2954,-252 11.2954,-246 11.2954,-240 11.2954,-240 11.2954,-228 11.2954,-228 11.2954,-222 17.2954,-216 23.2954,-216 23.2954,-216 53.2954,-216 53.2954,-216 59.2954,-216 65.2954,-222 65.2954,-228 65.2954,-228 65.2954,-240 65.2954,-240 65.2954,-246 59.2954,-252 53.2954,-252"/>
<text text-anchor="middle" x="38.2954" y="-231" font-family="sans" font-size="10.00">plot</text>
</g>
<!-- 3&#45;&gt;2 -->
<g id="edge4" class="edge"><title>3&#45;&gt;2</title>
<path fill="none" stroke="grey" stroke-width="2" d="M38.2954,-215.697C38.2954,-207.983 38.2954,-198.712 38.2954,-190.112"/>
<polygon fill="grey" stroke="grey" stroke-width="2" points="41.7955,-190.104 38.2954,-180.104 34.7955,-190.104 41.7955,-190.104"/>
</g>
<!-- 4 -->
<g id="node5" class="node"><title>4</title>
<path fill="none" stroke="#56a9d8" stroke-width="2" d="M53.2954,-324C53.2954,-324 23.2954,-324 23.2954,-324 17.2954,-324 11.2954,-318 11.2954,-312 11.2954,-312 11.2954,-300 11.2954,-300 11.2954,-294 17.2954,-288 23.2954,-288 23.2954,-288 53.2954,-288 53.2954,-288 59.2954,-288 65.2954,-294 65.2954,-300 65.2954,-300 65.2954,-312 65.2954,-312 65.2954,-318 59.2954,-324 53.2954,-324"/>
<text text-anchor="middle" x="38.2954" y="-303" font-family="sans" font-size="10.00">process</text>
</g>
<!-- 4&#45;&gt;3 -->
<g id="edge5" class="edge"><title>4&#45;&gt;3</title>
<path fill="none" stroke="grey" stroke-width="2" d="M38.2954,-287.697C38.2954,-279.983 38.2954,-270.712 38.2954,-262.112"/>
<polygon fill="grey" stroke="grey" stroke-width="2" points="41.7955,-262.104 38.2954,-252.104 34.7955,-262.104 41.7955,-262.104"/>
</g>
<!-- 5 -->
<g id="node6" class="node"><title>5</title>
<path fill="none" stroke="#59d856" stroke-width="2" d="M55.6082,-396C55.6082,-396 20.9826,-396 20.9826,-396 14.9826,-396 8.98261,-390 8.98261,-384 8.98261,-384 8.98261,-372 8.98261,-372 8.98261,-366 14.9826,-360 20.9826,-360 20.9826,-360 55.6082,-360 55.6082,-360 61.6082,-360 67.6082,-366 67.6082,-372 67.6082,-372 67.6082,-384 67.6082,-384 67.6082,-390 61.6082,-396 55.6082,-396"/>
<text text-anchor="middle" x="38.2954" y="-375" font-family="sans" font-size="10.00">download</text>
</g>
<!-- 5&#45;&gt;4 -->
<g id="edge6" class="edge"><title>5&#45;&gt;4</title>
<path fill="none" stroke="grey" stroke-width="2" d="M38.2954,-359.697C38.2954,-351.983 38.2954,-342.712 38.2954,-334.112"/>
<polygon fill="grey" stroke="grey" stroke-width="2" points="41.7955,-334.104 38.2954,-324.104 34.7955,-334.104 41.7955,-334.104"/>
</g>
</g>
</svg>
