<?xml version="1.0" encoding="UTF-8" standalone="no"?>
<!DOCTYPE svg PUBLIC "-//W3C//DTD SVG 1.1//EN"
 "http://www.w3.org/Graphics/SVG/1.1/DTD/svg11.dtd">
<!-- Generated by graphviz version 2.38.0 (20140413.2041)
 -->
<!-- Title: snakemake_dag Pages: 1 -->
<svg width="206pt" height="332pt"
 viewBox="0.00 0.00 206.49 332.00" xmlns="http://www.w3.org/2000/svg" xmlns:xlink="http://www.w3.org/1999/xlink">
<g id="graph0" class="graph" transform="scale(1 1) rotate(0) translate(4 328)">
<title>snakemake_dag</title>
<polygon fill="white" stroke="none" points="-4,4 -4,-328 202.487,-328 202.487,4 -4,4"/>
<!-- 0 -->
<g id="node1" class="node"><title>0</title>
<path fill="none" stroke="#56d8a9" stroke-width="2" d="M107.295,-36C107.295,-36 77.2954,-36 77.2954,-36 71.2954,-36 65.2954,-30 65.2954,-24 65.2954,-24 65.2954,-12 65.2954,-12 65.2954,-6 71.2954,-0 77.2954,-0 77.2954,-0 107.295,-0 107.295,-0 113.295,-0 119.295,-6 119.295,-12 119.295,-12 119.295,-24 119.295,-24 119.295,-30 113.295,-36 107.295,-36"/>
<text text-anchor="middle" x="92.2954" y="-15" font-family="sans" font-size="10.00">targets</text>
</g>
<!-- 1 -->
<g id="node2" class="node"><title>1</title>
<path fill="none" stroke="#d8ac56" stroke-width="2" d="M64.3873,-108C64.3873,-108 12.2035,-108 12.2035,-108 6.2035,-108 0.203503,-102 0.203503,-96 0.203503,-96 0.203503,-84 0.203503,-84 0.203503,-78 6.2035,-72 12.2035,-72 12.2035,-72 64.3873,-72 64.3873,-72 70.3873,-72 76.3873,-78 76.3873,-84 76.3873,-84 76.3873,-96 76.3873,-96 76.3873,-102 70.3873,-108 64.3873,-108"/>
<text text-anchor="middle" x="38.2954" y="-87" font-family="sans" font-size="10.00">render_report</text>
</g>
<!-- 1&#45;&gt;0 -->
<g id="edge1" class="edge"><title>1&#45;&gt;0</title>
<path fill="none" stroke="grey" stroke-width="2" d="M51.6437,-71.6966C58.0522,-63.3893 65.8531,-53.2771 72.9011,-44.1407"/>
<polygon fill="grey" stroke="grey" stroke-width="2" points="75.7638,-46.16 79.1006,-36.1043 70.2213,-41.8844 75.7638,-46.16"/>
</g>
<!-- 2 -->
<g id="node3" class="node"><title>2</title>
<path fill="none" stroke="#59d856" stroke-width="2" d="M186.68,-108C186.68,-108 105.911,-108 105.911,-108 99.9109,-108 93.9109,-102 93.9109,-96 93.9109,-96 93.9109,-84 93.9109,-84 93.9109,-78 99.9109,-72 105.911,-72 105.911,-72 186.68,-72 186.68,-72 192.68,-72 198.68,-78 198.68,-84 198.68,-84 198.68,-96 198.68,-96 198.68,-102 192.68,-108 186.68,-108"/>
<text text-anchor="middle" x="146.295" y="-87" font-family="sans" font-size="10.00">cat_figures_readme</text>
</g>
<!-- 2&#45;&gt;0 -->
<g id="edge2" class="edge"><title>2&#45;&gt;0</title>
<path fill="none" stroke="grey" stroke-width="2" d="M132.947,-71.6966C126.539,-63.3893 118.738,-53.2771 111.69,-44.1407"/>
<polygon fill="grey" stroke="grey" stroke-width="2" points="114.369,-41.8844 105.49,-36.1043 108.827,-46.16 114.369,-41.8844"/>
</g>
<!-- 3 -->
<g id="node4" class="node"><title>3</title>
<path fill="none" stroke="#d85656" stroke-width="2" d="M107.295,-180C107.295,-180 77.2954,-180 77.2954,-180 71.2954,-180 65.2954,-174 65.2954,-168 65.2954,-168 65.2954,-156 65.2954,-156 65.2954,-150 71.2954,-144 77.2954,-144 77.2954,-144 107.295,-144 107.295,-144 113.295,-144 119.295,-150 119.295,-156 119.295,-156 119.295,-168 119.295,-168 119.295,-174 113.295,-180 107.295,-180"/>
<text text-anchor="middle" x="92.2954" y="-159" font-family="sans" font-size="10.00">plot</text>
</g>
<!-- 3&#45;&gt;1 -->
<g id="edge3" class="edge"><title>3&#45;&gt;1</title>
<path fill="none" stroke="grey" stroke-width="2" d="M78.9471,-143.697C72.5386,-135.389 64.7377,-125.277 57.6897,-116.141"/>
<polygon fill="grey" stroke="grey" stroke-width="2" points="60.3695,-113.884 51.4902,-108.104 54.827,-118.16 60.3695,-113.884"/>
</g>
<!-- 3&#45;&gt;2 -->
<g id="edge4" class="edge"><title>3&#45;&gt;2</title>
<path fill="none" stroke="grey" stroke-width="2" d="M105.644,-143.697C112.052,-135.389 119.853,-125.277 126.901,-116.141"/>
<polygon fill="grey" stroke="grey" stroke-width="2" points="129.764,-118.16 133.101,-108.104 124.221,-113.884 129.764,-118.16"/>
</g>
<!-- 4 -->
<g id="node5" class="node"><title>4</title>
<path fill="none" stroke="#56a9d8" stroke-width="2" d="M107.295,-252C107.295,-252 77.2954,-252 77.2954,-252 71.2954,-252 65.2954,-246 65.2954,-240 65.2954,-240 65.2954,-228 65.2954,-228 65.2954,-222 71.2954,-216 77.2954,-216 77.2954,-216 107.295,-216 107.295,-216 113.295,-216 119.295,-222 119.295,-228 119.295,-228 119.295,-240 119.295,-240 119.295,-246 113.295,-252 107.295,-252"/>
<text text-anchor="middle" x="92.2954" y="-231" font-family="sans" font-size="10.00">process</text>
</g>
<!-- 4&#45;&gt;3 -->
<g id="edge5" class="edge"><title>4&#45;&gt;3</title>
<path fill="none" stroke="grey" stroke-width="2" d="M92.2954,-215.697C92.2954,-207.983 92.2954,-198.712 92.2954,-190.112"/>
<polygon fill="grey" stroke="grey" stroke-width="2" points="95.7955,-190.104 92.2954,-180.104 88.7955,-190.104 95.7955,-190.104"/>
</g>
<!-- 5 -->
<g id="node6" class="node"><title>5</title>
<path fill="none" stroke="#afd856" stroke-width="2" d="M109.608,-324C109.608,-324 74.9826,-324 74.9826,-324 68.9826,-324 62.9826,-318 62.9826,-312 62.9826,-312 62.9826,-300 62.9826,-300 62.9826,-294 68.9826,-288 74.9826,-288 74.9826,-288 109.608,-288 109.608,-288 115.608,-288 121.608,-294 121.608,-300 121.608,-300 121.608,-312 121.608,-312 121.608,-318 115.608,-324 109.608,-324"/>
<text text-anchor="middle" x="92.2954" y="-303" font-family="sans" font-size="10.00">download</text>
</g>
<!-- 5&#45;&gt;4 -->
<g id="edge6" class="edge"><title>5&#45;&gt;4</title>
<path fill="none" stroke="grey" stroke-width="2" d="M92.2954,-287.697C92.2954,-279.983 92.2954,-270.712 92.2954,-262.112"/>
<polygon fill="grey" stroke="grey" stroke-width="2" points="95.7955,-262.104 92.2954,-252.104 88.7955,-262.104 95.7955,-262.104"/>
</g>
</g>
</svg>
